<svg xmlns="http://www.w3.org/2000/svg" viewBox="-15 -877 6900 934" role="img"><title>Revisaurus</title><path d="M25 -573H259L293 -370V0H64V-377ZM554 -584V-389Q522 -395 495.5 -397.5Q469 -400 447 -400Q406 -400 371.0 -384.5Q336 -369 314.5 -331.5Q293 -294 293 -228L251 -280Q260 -342 275.5 -397.5Q291 -453 318.0 -496.5Q345 -540 385.5 -565.0Q426 -590 485 -590Q501 -590 518.0 -588.5Q535 -587 554 -584ZM948 17Q842 17 759.0 -21.0Q676 -59 628.0 -128.0Q580 -197 580 -289Q580 -379 626.5 -447.0Q673 -515 753.5 -552.5Q834 -590 934 -590Q1039 -590 1113.0 -546.5Q1187 -503 1226.5 -423.0Q1266 -343 1266 -235H767V-348H1134L1067 -310Q1062 -353 1045.5 -381.5Q1029 -410 1001.5 -425.0Q974 -440 936 -440Q894 -440 864.5 -422.0Q835 -404 819.5 -372.0Q804 -340 804 -299Q804 -248 826.5 -213.0Q849 -178 895.0 -159.5Q941 -141 1009 -141Q1074 -141 1136.5 -158.0Q1199 -175 1251 -208V-74Q1190 -30 1110.0 -6.5Q1030 17 948 17ZM1686 -110 1609 -111 1796 -573H2039L1775 0H1514L1250 -573H1503ZM2087 -584 2202 -560 2316 -584V0H2087ZM2202 -622Q2144 -622 2108.0 -651.0Q2072 -680 2072 -729Q2072 -779 2108.0 -808.0Q2144 -837 2202 -837Q2262 -837 2297.5 -808.0Q2333 -779 2333 -729Q2333 -680 2297.5 -651.0Q2262 -622 2202 -622ZM3105 -191Q3105 -122 3062.5 -75.5Q3020 -29 2942.5 -6.0Q2865 17 2759 17Q2650 17 2567.5 -9.0Q2485 -35 2438.5 -83.0Q2392 -131 2389 -194H2621Q2628 -173 2647.0 -158.0Q2666 -143 2696.5 -135.0Q2727 -127 2771 -127Q2825 -127 2853.5 -138.5Q2882 -150 2882 -172Q2882 -191 2859.5 -199.5Q2837 -208 2784 -212L2687 -219Q2582 -226 2520.0 -248.0Q2458 -270 2431.0 -306.5Q2404 -343 2404 -393Q2404 -459 2446.0 -503.0Q2488 -547 2563.0 -568.5Q2638 -590 2739 -590Q2838 -590 2915.0 -565.0Q2992 -540 3038.5 -494.5Q3085 -449 3092 -389H2860Q2855 -408 2839.0 -422.5Q2823 -437 2796.0 -445.5Q2769 -454 2728 -454Q2678 -454 2653.0 -442.0Q2628 -430 2628 -409Q2628 -392 2643.5 -383.5Q2659 -375 2702 -372L2831 -363Q2935 -357 2994.5 -335.5Q3054 -314 3079.5 -278.0Q3105 -242 3105 -191ZM3692 0 3665 -204 3693 -286 3665 -367 3692 -573H3930L3892 -287L3930 0ZM3743 -286Q3731 -195 3690.5 -126.5Q3650 -58 3586.5 -20.5Q3523 17 3441 17Q3358 17 3294.0 -21.0Q3230 -59 3194.5 -127.5Q3159 -196 3159 -286Q3159 -378 3194.5 -446.5Q3230 -515 3294.0 -552.5Q3358 -590 3441 -590Q3523 -590 3586.5 -553.0Q3650 -516 3691.0 -447.5Q3732 -379 3743 -286ZM3390 -286Q3390 -248 3405.5 -219.0Q3421 -190 3449.0 -173.0Q3477 -156 3513 -156Q3550 -156 3584.0 -173.0Q3618 -190 3644.0 -219.0Q3670 -248 3682 -286Q3670 -324 3644.0 -353.5Q3618 -383 3584.0 -400.0Q3550 -417 3513 -417Q3477 -417 3449.0 -400.0Q3421 -383 3405.5 -353.5Q3390 -324 3390 -286ZM4264 16Q4184 16 4126.5 -17.0Q4069 -50 4039.0 -110.5Q4009 -171 4009 -251V-573H4238V-284Q4238 -229 4266.0 -199.0Q4294 -169 4345 -169Q4384 -169 4410.0 -184.0Q4436 -199 4449.5 -228.0Q4463 -257 4463 -299L4532 -263Q4520 -172 4481.0 -109.5Q4442 -47 4386.5 -15.5Q4331 16 4264 16ZM4501 0 4463 -237V-573H4692V-202L4731 0ZM4777 -573H5011L5045 -370V0H4816V-377ZM5306 -584V-389Q5274 -395 5247.5 -397.5Q5221 -400 5199 -400Q5158 -400 5123.0 -384.5Q5088 -369 5066.5 -331.5Q5045 -294 5045 -228L5003 -280Q5012 -342 5027.5 -397.5Q5043 -453 5070.0 -496.5Q5097 -540 5137.5 -565.0Q5178 -590 5237 -590Q5253 -590 5270.0 -588.5Q5287 -587 5306 -584ZM5617 16Q5537 16 5479.5 -17.0Q5422 -50 5392.0 -110.5Q5362 -171 5362 -251V-573H5591V-284Q5591 -229 5619.0 -199.0Q5647 -169 5698 -169Q5737 -169 5763.0 -184.0Q5789 -199 5802.5 -228.0Q5816 -257 5816 -299L5885 -263Q5873 -172 5834.0 -109.5Q5795 -47 5739.5 -15.5Q5684 16 5617 16ZM5854 0 5816 -237V-573H6045V-202L6084 0ZM6845 -191Q6845 -122 6802.5 -75.5Q6760 -29 6682.5 -6.0Q6605 17 6499 17Q6390 17 6307.5 -9.0Q6225 -35 6178.5 -83.0Q6132 -131 6129 -194H6361Q6368 -173 6387.0 -158.0Q6406 -143 6436.5 -135.0Q6467 -127 6511 -127Q6565 -127 6593.5 -138.5Q6622 -150 6622 -172Q6622 -191 6599.5 -199.5Q6577 -208 6524 -212L6427 -219Q6322 -226 6260.0 -248.0Q6198 -270 6171.0 -306.5Q6144 -343 6144 -393Q6144 -459 6186.0 -503.0Q6228 -547 6303.0 -568.5Q6378 -590 6479 -590Q6578 -590 6655.0 -565.0Q6732 -540 6778.5 -494.5Q6825 -449 6832 -389H6600Q6595 -408 6579.0 -422.5Q6563 -437 6536.0 -445.5Q6509 -454 6468 -454Q6418 -454 6393.0 -442.0Q6368 -430 6368 -409Q6368 -392 6383.5 -383.5Q6399 -375 6442 -372L6571 -363Q6675 -357 6734.5 -335.5Q6794 -314 6819.5 -278.0Q6845 -242 6845 -191Z" fill="#f2f3ff" transform="translate(0 0) scale(1)"/></svg>
