<svg xmlns="http://www.w3.org/2000/svg" viewBox="-60 -836 8565.9 913" role="img"><title>Volta maths</title><g transform="translate(396.5 -379.5) scale(10.01)"><path d="M0 0V-38A38 38 0 0 1 38 0Z" transform="rotate(0)" fill="#3d6bff" stroke="#191b30" stroke-width="3.2" stroke-linejoin="round"/><path d="M0 0V-38A38 38 0 0 1 38 0Z" transform="rotate(90)" fill="#ff7a2e" stroke="#191b30" stroke-width="3.2" stroke-linejoin="round"/><path d="M0 0V-38A38 38 0 0 1 38 0Z" transform="rotate(180)" fill="#9b4dff" stroke="#191b30" stroke-width="3.2" stroke-linejoin="round"/><path d="M0 0V-23.56A23.56 23.56 0 0 1 23.56 0Z" transform="rotate(270)" fill="#c3f53c" stroke="#191b30" stroke-width="3.2" stroke-linejoin="round"/></g><path d="M435 -110 358 -111 545 -573H788L524 0H263L-1 -573H252ZM1148 17Q1037 17 953.0 -21.0Q869 -59 822.0 -127.5Q775 -196 775 -286Q775 -378 822.0 -446.5Q869 -515 953.0 -552.5Q1037 -590 1149 -590Q1260 -590 1344.0 -552.5Q1428 -515 1474.5 -446.5Q1521 -378 1521 -286Q1521 -196 1474.5 -127.5Q1428 -59 1344.0 -21.0Q1260 17 1148 17ZM1149 -151Q1194 -151 1225.5 -167.0Q1257 -183 1273.5 -213.5Q1290 -244 1290 -286Q1290 -329 1273.5 -359.5Q1257 -390 1225.5 -406.0Q1194 -422 1149 -422Q1104 -422 1072.0 -406.0Q1040 -390 1023.5 -359.5Q1007 -329 1007 -287Q1007 -244 1023.5 -213.5Q1040 -183 1072.0 -167.0Q1104 -151 1149 -151ZM1597 -770H1826V0H1597ZM1881 -405V-504L1995 -556L2095 -728H2225V-573H2457V-405H2225V-262Q2225 -204 2247.5 -180.0Q2270 -156 2336 -156Q2377 -156 2409.0 -162.5Q2441 -169 2467 -179V-10Q2435 0 2386.0 8.5Q2337 17 2283 17Q2185 17 2121.5 -13.0Q2058 -43 2026.5 -99.0Q1995 -155 1995 -231V-405ZM3040 0 3013 -204 3041 -286 3013 -367 3040 -573H3278L3240 -287L3278 0ZM3091 -286Q3079 -195 3038.5 -126.5Q2998 -58 2934.5 -20.5Q2871 17 2789 17Q2706 17 2642.0 -21.0Q2578 -59 2542.5 -127.5Q2507 -196 2507 -286Q2507 -378 2542.5 -446.5Q2578 -515 2642.0 -552.5Q2706 -590 2789 -590Q2871 -590 2934.5 -553.0Q2998 -516 3039.0 -447.5Q3080 -379 3091 -286ZM2738 -286Q2738 -248 2753.5 -219.0Q2769 -190 2797.0 -173.0Q2825 -156 2861 -156Q2898 -156 2932.0 -173.0Q2966 -190 2992.0 -219.0Q3018 -248 3030 -286Q3018 -324 2992.0 -353.5Q2966 -383 2932.0 -400.0Q2898 -417 2861 -417Q2825 -417 2797.0 -400.0Q2769 -383 2753.5 -353.5Q2738 -324 2738 -286Z" fill="#191b30" transform="translate(1031.9 0) scale(1)"/><path d="M42 -566H172L206 -362V0H76V-381ZM415 -580Q490 -580 542.5 -548.0Q595 -516 622.5 -456.5Q650 -397 650 -313V0H520V-292Q520 -381 482.5 -426.5Q445 -472 373 -472Q322 -472 284.5 -447.5Q247 -423 226.5 -379.0Q206 -335 206 -276L160 -301Q169 -389 203.5 -451.0Q238 -513 292.5 -546.5Q347 -580 415 -580ZM858 -580Q933 -580 986.0 -548.0Q1039 -516 1066.5 -456.5Q1094 -397 1094 -313V0H964V-292Q964 -381 926.5 -426.5Q889 -472 817 -472Q766 -472 728.5 -447.5Q691 -423 670.5 -379.0Q650 -335 650 -276L604 -301Q613 -389 647.5 -451.0Q682 -513 736.5 -546.5Q791 -580 858 -580ZM1752 0 1730 -210 1756 -283 1730 -355 1752 -566H1886L1856 -283L1886 0ZM1792 -283Q1773 -194 1729.0 -127.0Q1685 -60 1620.5 -23.0Q1556 14 1477 14Q1394 14 1330.0 -23.5Q1266 -61 1230.0 -128.0Q1194 -195 1194 -283Q1194 -372 1230.0 -438.5Q1266 -505 1330.0 -542.5Q1394 -580 1477 -580Q1556 -580 1620.5 -543.0Q1685 -506 1729.5 -439.5Q1774 -373 1792 -283ZM1326 -283Q1326 -226 1349.5 -182.5Q1373 -139 1414.0 -114.5Q1455 -90 1508 -90Q1562 -90 1608.0 -114.5Q1654 -139 1689.5 -182.5Q1725 -226 1746 -283Q1725 -340 1689.5 -383.5Q1654 -427 1608.0 -451.5Q1562 -476 1508 -476Q1455 -476 1414.0 -451.5Q1373 -427 1349.5 -383.5Q1326 -340 1326 -283ZM1947 -466V-525L2068 -556L2122 -714H2198V-566H2461V-466H2198V-221Q2198 -150 2228.5 -121.5Q2259 -93 2328 -93Q2372 -93 2406.0 -102.5Q2440 -112 2471 -130V-23Q2445 -10 2397.5 2.0Q2350 14 2300 14Q2217 14 2166.0 -13.5Q2115 -41 2091.5 -89.5Q2068 -138 2068 -201V-466ZM2566 -770H2696V0H2566ZM2921 -580Q3001 -580 3057.0 -548.0Q3113 -516 3142.5 -456.5Q3172 -397 3172 -313V0H3042V-292Q3042 -381 3000.5 -426.5Q2959 -472 2879 -472Q2824 -472 2782.5 -447.5Q2741 -423 2718.5 -379.0Q2696 -335 2696 -276L2650 -301Q2659 -389 2696.0 -451.0Q2733 -513 2791.0 -546.5Q2849 -580 2921 -580ZM3888 -172Q3888 -115 3856.0 -73.0Q3824 -31 3759.0 -8.5Q3694 14 3596 14Q3495 14 3421.0 -11.5Q3347 -37 3306.5 -83.5Q3266 -130 3263 -191H3395Q3401 -159 3427.5 -134.5Q3454 -110 3497.5 -97.0Q3541 -84 3597 -84Q3678 -84 3719.0 -103.5Q3760 -123 3760 -163Q3760 -190 3732.5 -204.0Q3705 -218 3629 -225L3518 -235Q3428 -243 3376.0 -267.5Q3324 -292 3302.0 -327.5Q3280 -363 3280 -403Q3280 -461 3316.0 -500.0Q3352 -539 3416.0 -559.5Q3480 -580 3565 -580Q3653 -580 3722.0 -555.5Q3791 -531 3832.0 -487.5Q3873 -444 3878 -387H3746Q3742 -410 3722.5 -431.5Q3703 -453 3663.5 -467.5Q3624 -482 3558 -482Q3488 -482 3448.5 -464.0Q3409 -446 3409 -411Q3409 -389 3433.0 -373.5Q3457 -358 3522 -352L3665 -339Q3751 -331 3799.5 -308.5Q3848 -286 3868.0 -251.0Q3888 -216 3888 -172Z" fill="#3d6bff" transform="translate(4557.9 0)"/></svg>
