<svg xmlns="http://www.w3.org/2000/svg" viewBox="-60 -836 8816.9 913" role="img"><title>Volta english</title><g transform="translate(396.5 -379.5) scale(10.01)"><path d="M0 0V-38A38 38 0 0 1 38 0Z" transform="rotate(0)" fill="#3d6bff" stroke="#191b30" stroke-width="3.2" stroke-linejoin="round"/><path d="M0 0V-38A38 38 0 0 1 38 0Z" transform="rotate(90)" fill="#ff7a2e" stroke="#191b30" stroke-width="3.2" stroke-linejoin="round"/><path d="M0 0V-38A38 38 0 0 1 38 0Z" transform="rotate(180)" fill="#9b4dff" stroke="#191b30" stroke-width="3.2" stroke-linejoin="round"/><path d="M0 0V-23.56A23.56 23.56 0 0 1 23.56 0Z" transform="rotate(270)" fill="#c3f53c" stroke="#191b30" stroke-width="3.2" stroke-linejoin="round"/></g><path d="M435 -110 358 -111 545 -573H788L524 0H263L-1 -573H252ZM1148 17Q1037 17 953.0 -21.0Q869 -59 822.0 -127.5Q775 -196 775 -286Q775 -378 822.0 -446.5Q869 -515 953.0 -552.5Q1037 -590 1149 -590Q1260 -590 1344.0 -552.5Q1428 -515 1474.5 -446.5Q1521 -378 1521 -286Q1521 -196 1474.5 -127.5Q1428 -59 1344.0 -21.0Q1260 17 1148 17ZM1149 -151Q1194 -151 1225.5 -167.0Q1257 -183 1273.5 -213.5Q1290 -244 1290 -286Q1290 -329 1273.5 -359.5Q1257 -390 1225.5 -406.0Q1194 -422 1149 -422Q1104 -422 1072.0 -406.0Q1040 -390 1023.5 -359.5Q1007 -329 1007 -287Q1007 -244 1023.5 -213.5Q1040 -183 1072.0 -167.0Q1104 -151 1149 -151ZM1597 -770H1826V0H1597ZM1881 -405V-504L1995 -556L2095 -728H2225V-573H2457V-405H2225V-262Q2225 -204 2247.5 -180.0Q2270 -156 2336 -156Q2377 -156 2409.0 -162.5Q2441 -169 2467 -179V-10Q2435 0 2386.0 8.5Q2337 17 2283 17Q2185 17 2121.5 -13.0Q2058 -43 2026.5 -99.0Q1995 -155 1995 -231V-405ZM3040 0 3013 -204 3041 -286 3013 -367 3040 -573H3278L3240 -287L3278 0ZM3091 -286Q3079 -195 3038.5 -126.5Q2998 -58 2934.5 -20.5Q2871 17 2789 17Q2706 17 2642.0 -21.0Q2578 -59 2542.5 -127.5Q2507 -196 2507 -286Q2507 -378 2542.5 -446.5Q2578 -515 2642.0 -552.5Q2706 -590 2789 -590Q2871 -590 2934.5 -553.0Q2998 -516 3039.0 -447.5Q3080 -379 3091 -286ZM2738 -286Q2738 -248 2753.5 -219.0Q2769 -190 2797.0 -173.0Q2825 -156 2861 -156Q2898 -156 2932.0 -173.0Q2966 -190 2992.0 -219.0Q3018 -248 3030 -286Q3018 -324 2992.0 -353.5Q2966 -383 2932.0 -400.0Q2898 -417 2861 -417Q2825 -417 2797.0 -400.0Q2769 -383 2753.5 -353.5Q2738 -324 2738 -286Z" fill="#191b30" transform="translate(1031.9 0) scale(1)"/><path d="M378 14Q279 14 202.0 -23.5Q125 -61 81.0 -128.0Q37 -195 37 -284Q37 -372 78.5 -438.5Q120 -505 193.5 -542.5Q267 -580 362 -580Q457 -580 526.5 -537.5Q596 -495 634.0 -418.0Q672 -341 672 -237H139V-336H607L542 -299Q539 -355 515.5 -395.0Q492 -435 452.5 -456.5Q413 -478 359 -478Q302 -478 259.5 -455.0Q217 -432 193.0 -390.5Q169 -349 169 -292Q169 -229 197.5 -183.0Q226 -137 278.5 -112.5Q331 -88 403 -88Q468 -88 536.0 -108.5Q604 -129 656 -166V-72Q604 -32 529.5 -9.0Q455 14 378 14ZM752 -566H882L916 -362V0H786V-381ZM1141 -580Q1221 -580 1277.0 -548.0Q1333 -516 1362.5 -456.5Q1392 -397 1392 -313V0H1262V-292Q1262 -381 1220.5 -426.5Q1179 -472 1099 -472Q1044 -472 1002.5 -447.5Q961 -423 938.5 -379.0Q916 -335 916 -276L870 -301Q879 -389 916.0 -451.0Q953 -513 1011.0 -546.5Q1069 -580 1141 -580ZM2036 -139V-239L2041 -257V-366L2036 -386V-566H2166V-151Q2166 -42 2120.0 31.5Q2074 105 1994.0 142.0Q1914 179 1810 179Q1734 179 1670.0 159.0Q1606 139 1546 98V-10Q1607 38 1672.0 57.5Q1737 77 1802 77Q1916 77 1976.0 21.0Q2036 -35 2036 -139ZM1764 -44Q1686 -44 1624.0 -77.5Q1562 -111 1526.0 -171.0Q1490 -231 1490 -312Q1490 -393 1526.0 -453.0Q1562 -513 1624.0 -546.5Q1686 -580 1764 -580Q1822 -580 1871.5 -562.0Q1921 -544 1960.5 -514.5Q2000 -485 2027.5 -449.5Q2055 -414 2070.0 -377.5Q2085 -341 2085 -311Q2085 -272 2062.0 -225.5Q2039 -179 1996.5 -138.0Q1954 -97 1895.0 -70.5Q1836 -44 1764 -44ZM1804 -140Q1875 -140 1934.5 -181.0Q1994 -222 2041 -312Q1994 -404 1934.5 -444.5Q1875 -485 1804 -485Q1746 -485 1705.0 -463.0Q1664 -441 1642.5 -402.0Q1621 -363 1621 -312Q1621 -262 1642.5 -223.0Q1664 -184 1705.0 -162.0Q1746 -140 1804 -140ZM2301 -770H2431V0H2301ZM2569 -570 2634 -558 2699 -570V0H2569ZM2634 -641Q2597 -641 2573.0 -661.5Q2549 -682 2549 -715Q2549 -748 2573.0 -768.5Q2597 -789 2634 -789Q2672 -789 2695.5 -768.5Q2719 -748 2719 -715Q2719 -682 2695.5 -661.5Q2672 -641 2634 -641ZM3423 -172Q3423 -115 3391.0 -73.0Q3359 -31 3294.0 -8.5Q3229 14 3131 14Q3030 14 2956.0 -11.5Q2882 -37 2841.5 -83.5Q2801 -130 2798 -191H2930Q2936 -159 2962.5 -134.5Q2989 -110 3032.5 -97.0Q3076 -84 3132 -84Q3213 -84 3254.0 -103.5Q3295 -123 3295 -163Q3295 -190 3267.5 -204.0Q3240 -218 3164 -225L3053 -235Q2963 -243 2911.0 -267.5Q2859 -292 2837.0 -327.5Q2815 -363 2815 -403Q2815 -461 2851.0 -500.0Q2887 -539 2951.0 -559.5Q3015 -580 3100 -580Q3188 -580 3257.0 -555.5Q3326 -531 3367.0 -487.5Q3408 -444 3413 -387H3281Q3277 -410 3257.5 -431.5Q3238 -453 3198.5 -467.5Q3159 -482 3093 -482Q3023 -482 2983.5 -464.0Q2944 -446 2944 -411Q2944 -389 2968.0 -373.5Q2992 -358 3057 -352L3200 -339Q3286 -331 3334.5 -308.5Q3383 -286 3403.0 -251.0Q3423 -216 3423 -172ZM3528 -770H3658V0H3528ZM3883 -580Q3963 -580 4019.0 -548.0Q4075 -516 4104.5 -456.5Q4134 -397 4134 -313V0H4004V-292Q4004 -381 3962.5 -426.5Q3921 -472 3841 -472Q3786 -472 3744.5 -447.5Q3703 -423 3680.5 -379.0Q3658 -335 3658 -276L3612 -301Q3621 -389 3658.0 -451.0Q3695 -513 3753.0 -546.5Q3811 -580 3883 -580Z" fill="#e0600f" transform="translate(4562.9 0)"/></svg>
